<svg xmlns="http://www.w3.org/2000/svg" width="320" height="38" viewBox="0 0 320 38">
  <rect width="320" height="38" fill="none"/>
  <path d="M0 19 L20 5 L40 19 L60 5 L80 19 L100 5 L120 19 L140 5 L160 19 L180 5 L200 19 L220 5 L240 19 L260 5 L280 19 L300 5 L320 19" fill="none" stroke="#D4B8E6" stroke-width="4" stroke-linecap="round" stroke-linejoin="round"/>
  <path d="M0 19 L20 33 L40 19 L60 33 L80 19 L100 33 L120 19 L140 33 L160 19 L180 33 L200 19 L220 33 L240 19 L260 33 L280 19 L300 33 L320 19" fill="none" stroke="#AFC8E6" stroke-width="3" stroke-linecap="round" stroke-linejoin="round"/>
</svg>
